<mxfile host="app.diagrams.net" modified="2022-01-01T10:06:42.589Z" agent="5.0 (Macintosh; Intel Mac OS X 10_16_0) AppleWebKit/537.36 (KHTML, like Gecko) Chrome/80.0.3987.163 Safari/537.36" etag="gaYdIyFneXFxMGgPaKsV" version="16.1.2" type="github">
  <diagram id="70LiV7wz0bi2Di8q39UR" name="第 1 页">
    <mxGraphModel dx="1261" dy="4100" grid="1" gridSize="10" guides="1" tooltips="1" connect="1" arrows="1" fold="1" page="1" pageScale="1" pageWidth="2339" pageHeight="3300" math="0" shadow="0">
      <root>
        <mxCell id="0" />
        <mxCell id="1" parent="0" />
        <mxCell id="CxRJg8WJ5stTx7T4FeH7-5" style="edgeStyle=orthogonalEdgeStyle;rounded=0;orthogonalLoop=1;jettySize=auto;html=1;exitX=1;exitY=0.5;exitDx=0;exitDy=0;fontColor=#FF6666;dashed=1;" parent="1" source="CxRJg8WJ5stTx7T4FeH7-1" target="CxRJg8WJ5stTx7T4FeH7-4" edge="1">
          <mxGeometry relative="1" as="geometry" />
        </mxCell>
        <mxCell id="CxRJg8WJ5stTx7T4FeH7-7" style="edgeStyle=orthogonalEdgeStyle;rounded=0;orthogonalLoop=1;jettySize=auto;html=1;exitX=0.5;exitY=1;exitDx=0;exitDy=0;fontColor=#000000;" parent="1" source="CxRJg8WJ5stTx7T4FeH7-1" target="CxRJg8WJ5stTx7T4FeH7-6" edge="1">
          <mxGeometry relative="1" as="geometry" />
        </mxCell>
        <mxCell id="CxRJg8WJ5stTx7T4FeH7-1" value="onStartup(@Nullable Set&amp;lt;Class&amp;lt;?&amp;gt;&amp;gt; &lt;b&gt;&lt;font color=&quot;#ff6666&quot;&gt;webAppInitializerClasses&lt;/font&gt;&lt;/b&gt;, ServletContext servletContext)" style="shape=parallelogram;perimeter=parallelogramPerimeter;whiteSpace=wrap;html=1;fixedSize=1;" parent="1" vertex="1">
          <mxGeometry x="570" y="80" width="310" height="80" as="geometry" />
        </mxCell>
        <mxCell id="CxRJg8WJ5stTx7T4FeH7-3" value="&lt;b&gt;&lt;font style=&quot;font-size: 20px&quot;&gt;父子容器通过SPI机制实现，入口在Spring-Framework 的spring-web中的webapp/MATE-INF/service/javax.servlet.ServletContainerInitializer&lt;/font&gt;&lt;/b&gt;" style="text;html=1;strokeColor=none;fillColor=none;align=center;verticalAlign=middle;whiteSpace=wrap;rounded=0;" parent="1" vertex="1">
          <mxGeometry x="40" y="30" width="480" height="250" as="geometry" />
        </mxCell>
        <mxCell id="CxRJg8WJ5stTx7T4FeH7-4" value="&lt;font color=&quot;#000000&quot;&gt;webAppInitializerClasses 中参数是通过 @HandlesTypes(WebApplicationInitializer.class) 获取到的所有 WebApplicationInitializer.class 的实现类&lt;/font&gt;" style="rounded=1;whiteSpace=wrap;html=1;fontColor=#FF6666;" parent="1" vertex="1">
          <mxGeometry x="1000" y="90" width="340" height="60" as="geometry" />
        </mxCell>
        <mxCell id="CxRJg8WJ5stTx7T4FeH7-10" style="edgeStyle=orthogonalEdgeStyle;rounded=0;orthogonalLoop=1;jettySize=auto;html=1;exitX=1;exitY=0.5;exitDx=0;exitDy=0;fontColor=#000000;" parent="1" source="CxRJg8WJ5stTx7T4FeH7-6" target="CxRJg8WJ5stTx7T4FeH7-9" edge="1">
          <mxGeometry relative="1" as="geometry" />
        </mxCell>
        <mxCell id="CxRJg8WJ5stTx7T4FeH7-11" value="true" style="edgeLabel;html=1;align=center;verticalAlign=middle;resizable=0;points=[];fontColor=#000000;" parent="CxRJg8WJ5stTx7T4FeH7-10" vertex="1" connectable="0">
          <mxGeometry x="-0.2324" y="-2" relative="1" as="geometry">
            <mxPoint x="7" y="-2" as="offset" />
          </mxGeometry>
        </mxCell>
        <mxCell id="CxRJg8WJ5stTx7T4FeH7-13" style="edgeStyle=orthogonalEdgeStyle;rounded=0;orthogonalLoop=1;jettySize=auto;html=1;exitX=0.5;exitY=1;exitDx=0;exitDy=0;fontColor=#000000;" parent="1" source="CxRJg8WJ5stTx7T4FeH7-6" target="CxRJg8WJ5stTx7T4FeH7-12" edge="1">
          <mxGeometry relative="1" as="geometry" />
        </mxCell>
        <mxCell id="CxRJg8WJ5stTx7T4FeH7-14" value="false" style="edgeLabel;html=1;align=center;verticalAlign=middle;resizable=0;points=[];fontColor=#000000;" parent="CxRJg8WJ5stTx7T4FeH7-13" vertex="1" connectable="0">
          <mxGeometry x="-0.0909" relative="1" as="geometry">
            <mxPoint as="offset" />
          </mxGeometry>
        </mxCell>
        <mxCell id="CxRJg8WJ5stTx7T4FeH7-6" value="&lt;b&gt;!waiClass.isInterface() &lt;/b&gt;&lt;font color=&quot;#000000&quot;&gt;&amp;amp;&amp;amp; !Modifier.isAbstract(waiClass.getModifiers()) &amp;amp;&amp;amp;&lt;/font&gt;&lt;br&gt;&lt;b&gt;WebApplicationInitializer.class.isAssignableFrom(waiClass)&lt;/b&gt;" style="rhombus;whiteSpace=wrap;html=1;fontColor=#FF6666;" parent="1" vertex="1">
          <mxGeometry x="542.5" y="220" width="365" height="100" as="geometry" />
        </mxCell>
        <mxCell id="CxRJg8WJ5stTx7T4FeH7-9" value="&lt;font color=&quot;#000000&quot;&gt;进行实例化，然后添加到 initializers 集合中&lt;br&gt;&lt;/font&gt;&lt;div&gt;&lt;font color=&quot;#000000&quot;&gt;initializers.add((WebApplicationInitializer)&lt;/font&gt;&lt;/div&gt;&lt;div&gt;&lt;font color=&quot;#000000&quot;&gt;&lt;span&gt;        &lt;/span&gt;ReflectionUtils.accessibleConstructor(waiClass).newInstance());&lt;/font&gt;&lt;/div&gt;" style="rounded=1;whiteSpace=wrap;html=1;fontColor=#FF6666;" parent="1" vertex="1">
          <mxGeometry x="1000" y="240" width="340" height="60" as="geometry" />
        </mxCell>
        <mxCell id="CxRJg8WJ5stTx7T4FeH7-18" style="edgeStyle=orthogonalEdgeStyle;rounded=0;orthogonalLoop=1;jettySize=auto;html=1;exitX=1;exitY=0.5;exitDx=0;exitDy=0;entryX=0;entryY=0.5;entryDx=0;entryDy=0;fontSize=20;fontColor=#FF6666;dashed=1;" parent="1" source="CxRJg8WJ5stTx7T4FeH7-12" target="CxRJg8WJ5stTx7T4FeH7-17" edge="1">
          <mxGeometry relative="1" as="geometry" />
        </mxCell>
        <mxCell id="CxRJg8WJ5stTx7T4FeH7-12" value="&lt;div&gt;&lt;font color=&quot;#000000&quot;&gt;循环调用 onStartup 方法&lt;/font&gt;&lt;/div&gt;&lt;div&gt;&lt;span style=&quot;color: rgb(0 , 0 , 0)&quot;&gt;   &lt;/span&gt;&lt;font color=&quot;#000000&quot;&gt;initializer.&lt;/font&gt;&lt;b&gt;onStartup&lt;/b&gt;&lt;font color=&quot;#000000&quot;&gt;(servletContext);&lt;/font&gt;&lt;/div&gt;" style="rounded=1;whiteSpace=wrap;html=1;fontColor=#FF6666;" parent="1" vertex="1">
          <mxGeometry x="555" y="430" width="340" height="60" as="geometry" />
        </mxCell>
        <mxCell id="CxRJg8WJ5stTx7T4FeH7-16" value="&lt;h1&gt;&lt;font color=&quot;#000000&quot;&gt;注意&lt;/font&gt;&lt;/h1&gt;&lt;p&gt;&lt;font color=&quot;#000000&quot;&gt;WebApplicationInitializer.class的子类都是抽象类，所以想要启动父子容器，需要我们自己去创一个一个子类实现，而且不是抽象的，这里就以实现&lt;/font&gt;&lt;b&gt;AbstractDispatcherServletInitializer&lt;/b&gt;&lt;font color=&quot;#000000&quot;&gt;为例&lt;/font&gt;&lt;br&gt;&lt;/p&gt;" style="text;html=1;strokeColor=none;fillColor=none;spacing=5;spacingTop=-20;whiteSpace=wrap;overflow=hidden;rounded=0;fontColor=#FF6666;" parent="1" vertex="1">
          <mxGeometry x="1470" y="60" width="270" height="120" as="geometry" />
        </mxCell>
        <mxCell id="CxRJg8WJ5stTx7T4FeH7-21" style="edgeStyle=orthogonalEdgeStyle;rounded=0;orthogonalLoop=1;jettySize=auto;html=1;exitX=1;exitY=0.5;exitDx=0;exitDy=0;entryX=0;entryY=0.5;entryDx=0;entryDy=0;fontSize=20;fontColor=#FF6666;" parent="1" source="CxRJg8WJ5stTx7T4FeH7-17" target="CxRJg8WJ5stTx7T4FeH7-19" edge="1">
          <mxGeometry relative="1" as="geometry" />
        </mxCell>
        <mxCell id="CxRJg8WJ5stTx7T4FeH7-22" style="edgeStyle=orthogonalEdgeStyle;rounded=0;orthogonalLoop=1;jettySize=auto;html=1;exitX=1;exitY=0.5;exitDx=0;exitDy=0;entryX=0;entryY=0.5;entryDx=0;entryDy=0;fontSize=20;fontColor=#FF6666;" parent="1" source="CxRJg8WJ5stTx7T4FeH7-17" target="CxRJg8WJ5stTx7T4FeH7-20" edge="1">
          <mxGeometry relative="1" as="geometry" />
        </mxCell>
        <mxCell id="CxRJg8WJ5stTx7T4FeH7-17" value="&lt;font color=&quot;#000000&quot;&gt;假如我们实现了该接口，会调用&lt;br&gt;AbstractAnnotationConfigDispatcherServletInitializer.java&lt;br&gt;的&lt;/font&gt;&lt;b&gt;onStartup&lt;/b&gt;&lt;font color=&quot;#000000&quot;&gt;方法，因为他自己没有重新这个方法，所以会调用父类AbstractDispatcherServletInitializer的&lt;/font&gt;&lt;b&gt;onStartup&lt;/b&gt;&lt;font color=&quot;#000000&quot;&gt;方法&lt;/font&gt;&lt;font color=&quot;#000000&quot;&gt;&lt;br&gt;&lt;/font&gt;" style="rounded=1;whiteSpace=wrap;html=1;fontColor=#FF6666;" parent="1" vertex="1">
          <mxGeometry x="1450" y="310" width="340" height="60" as="geometry" />
        </mxCell>
        <mxCell id="CxRJg8WJ5stTx7T4FeH7-24" style="edgeStyle=orthogonalEdgeStyle;rounded=0;orthogonalLoop=1;jettySize=auto;html=1;exitX=1;exitY=0.5;exitDx=0;exitDy=0;entryX=0;entryY=0.5;entryDx=0;entryDy=0;fontSize=20;fontColor=#FF6666;" parent="1" source="CxRJg8WJ5stTx7T4FeH7-19" target="CxRJg8WJ5stTx7T4FeH7-23" edge="1">
          <mxGeometry relative="1" as="geometry" />
        </mxCell>
        <mxCell id="CxRJg8WJ5stTx7T4FeH7-19" value="&lt;font color=&quot;#000000&quot;&gt;&lt;div&gt;AbstractDispatcherServletInitializer.java&lt;br&gt;&lt;/div&gt;&lt;div&gt;创建父容器 rootAppContext&lt;/div&gt;&lt;div&gt;&lt;span&gt;  &lt;/span&gt;super.onStartup(servletContext);&lt;/div&gt;&lt;/font&gt;" style="rounded=1;whiteSpace=wrap;html=1;fontColor=#FF6666;" parent="1" vertex="1">
          <mxGeometry x="1950" y="110" width="340" height="60" as="geometry" />
        </mxCell>
        <mxCell id="CxRJg8WJ5stTx7T4FeH7-32" style="edgeStyle=orthogonalEdgeStyle;rounded=0;orthogonalLoop=1;jettySize=auto;html=1;exitX=1;exitY=0.5;exitDx=0;exitDy=0;entryX=0;entryY=0.5;entryDx=0;entryDy=0;fontSize=20;fontColor=#FF6666;" parent="1" source="CxRJg8WJ5stTx7T4FeH7-20" target="CxRJg8WJ5stTx7T4FeH7-31" edge="1">
          <mxGeometry relative="1" as="geometry" />
        </mxCell>
        <mxCell id="CxRJg8WJ5stTx7T4FeH7-34" style="edgeStyle=orthogonalEdgeStyle;rounded=0;orthogonalLoop=1;jettySize=auto;html=1;exitX=1;exitY=0.5;exitDx=0;exitDy=0;entryX=0;entryY=0.5;entryDx=0;entryDy=0;fontSize=20;fontColor=#FF6666;" parent="1" source="CxRJg8WJ5stTx7T4FeH7-20" target="CxRJg8WJ5stTx7T4FeH7-33" edge="1">
          <mxGeometry relative="1" as="geometry" />
        </mxCell>
        <mxCell id="CxRJg8WJ5stTx7T4FeH7-36" style="edgeStyle=orthogonalEdgeStyle;rounded=0;orthogonalLoop=1;jettySize=auto;html=1;exitX=1;exitY=0.5;exitDx=0;exitDy=0;entryX=0;entryY=0.5;entryDx=0;entryDy=0;fontSize=20;fontColor=#FF6666;" parent="1" source="CxRJg8WJ5stTx7T4FeH7-20" target="CxRJg8WJ5stTx7T4FeH7-35" edge="1">
          <mxGeometry relative="1" as="geometry" />
        </mxCell>
        <mxCell id="CxRJg8WJ5stTx7T4FeH7-38" style="edgeStyle=orthogonalEdgeStyle;rounded=0;orthogonalLoop=1;jettySize=auto;html=1;exitX=1;exitY=0.5;exitDx=0;exitDy=0;entryX=0;entryY=0.5;entryDx=0;entryDy=0;fontSize=20;fontColor=#FF6666;" parent="1" source="CxRJg8WJ5stTx7T4FeH7-20" target="CxRJg8WJ5stTx7T4FeH7-37" edge="1">
          <mxGeometry relative="1" as="geometry" />
        </mxCell>
        <mxCell id="CxRJg8WJ5stTx7T4FeH7-20" value="&lt;font color=&quot;#000000&quot;&gt;&lt;div&gt;AbstractDispatcherServletInitializer.java&lt;/div&gt;&lt;div&gt;创建子容器servletAppContext&lt;/div&gt;&lt;div&gt;&lt;span&gt;  &lt;/span&gt;registerDispatcherServlet(servletContext);&lt;/div&gt;&lt;/font&gt;" style="rounded=1;whiteSpace=wrap;html=1;fontColor=#FF6666;" parent="1" vertex="1">
          <mxGeometry x="1950" y="450" width="340" height="60" as="geometry" />
        </mxCell>
        <mxCell id="CxRJg8WJ5stTx7T4FeH7-26" style="edgeStyle=orthogonalEdgeStyle;rounded=0;orthogonalLoop=1;jettySize=auto;html=1;exitX=1;exitY=0.5;exitDx=0;exitDy=0;entryX=0;entryY=0.5;entryDx=0;entryDy=0;fontSize=20;fontColor=#FF6666;" parent="1" source="CxRJg8WJ5stTx7T4FeH7-23" target="CxRJg8WJ5stTx7T4FeH7-25" edge="1">
          <mxGeometry relative="1" as="geometry" />
        </mxCell>
        <mxCell id="CxRJg8WJ5stTx7T4FeH7-28" style="edgeStyle=orthogonalEdgeStyle;rounded=0;orthogonalLoop=1;jettySize=auto;html=1;exitX=1;exitY=0.5;exitDx=0;exitDy=0;fontSize=20;fontColor=#FF6666;" parent="1" source="CxRJg8WJ5stTx7T4FeH7-23" target="CxRJg8WJ5stTx7T4FeH7-27" edge="1">
          <mxGeometry relative="1" as="geometry" />
        </mxCell>
        <mxCell id="CxRJg8WJ5stTx7T4FeH7-30" style="edgeStyle=orthogonalEdgeStyle;rounded=0;orthogonalLoop=1;jettySize=auto;html=1;exitX=1;exitY=0.5;exitDx=0;exitDy=0;entryX=0;entryY=0.5;entryDx=0;entryDy=0;fontSize=20;fontColor=#FF6666;" parent="1" source="CxRJg8WJ5stTx7T4FeH7-23" target="CxRJg8WJ5stTx7T4FeH7-29" edge="1">
          <mxGeometry relative="1" as="geometry" />
        </mxCell>
        <mxCell id="CxRJg8WJ5stTx7T4FeH7-23" value="&lt;font color=&quot;#000000&quot;&gt;&lt;div&gt;AbstractContextLoaderInitializer.java&lt;br&gt;&lt;/div&gt;&lt;div&gt;&lt;span&gt;  &lt;/span&gt;registerContextLoaderListener(servletContext);&lt;/div&gt;&lt;/font&gt;" style="rounded=1;whiteSpace=wrap;html=1;fontColor=#FF6666;" parent="1" vertex="1">
          <mxGeometry x="2410" y="110" width="340" height="60" as="geometry" />
        </mxCell>
        <mxCell id="CxRJg8WJ5stTx7T4FeH7-25" value="&lt;font color=&quot;#000000&quot;&gt;&lt;div&gt;创建父容器&lt;/div&gt;&lt;div&gt;&lt;span&gt;  &lt;/span&gt;WebApplicationContext rootAppContext = createRootApplicationContext();&lt;/div&gt;&lt;/font&gt;" style="rounded=1;whiteSpace=wrap;html=1;fontColor=#FF6666;" parent="1" vertex="1">
          <mxGeometry x="2890" y="-40" width="340" height="60" as="geometry" />
        </mxCell>
        <mxCell id="CxRJg8WJ5stTx7T4FeH7-27" value="&lt;font color=&quot;#000000&quot;&gt;&lt;div&gt;&lt;span&gt;创建 ContextLoaderListener 对象，并给其内的 context 赋值&lt;/span&gt;&lt;br&gt;&lt;/div&gt;&lt;div&gt;&lt;div&gt;&lt;span&gt;   &lt;/span&gt;ContextLoaderListener listener = new ContextLoaderListener(rootAppContext);&lt;/div&gt;&lt;/div&gt;&lt;/font&gt;" style="rounded=1;whiteSpace=wrap;html=1;fontColor=#FF6666;" parent="1" vertex="1">
          <mxGeometry x="2890" y="70" width="340" height="60" as="geometry" />
        </mxCell>
        <mxCell id="CxRJg8WJ5stTx7T4FeH7-29" value="&lt;font color=&quot;#000000&quot;&gt;将监听器设置进&lt;/font&gt;&lt;span style=&quot;color: rgb(0 , 0 , 0)&quot;&gt;servletContext对象中&lt;br&gt;&lt;/span&gt;&lt;span style=&quot;color: rgb(0 , 0 , 0)&quot;&gt;servletContext&lt;/span&gt;&lt;font color=&quot;#000000&quot;&gt;.addListener(listener);&lt;br&gt;&lt;/font&gt;" style="rounded=1;whiteSpace=wrap;html=1;fontColor=#FF6666;" parent="1" vertex="1">
          <mxGeometry x="2890" y="200" width="340" height="60" as="geometry" />
        </mxCell>
        <mxCell id="CxRJg8WJ5stTx7T4FeH7-31" value="&lt;div style=&quot;color: rgb(0 , 0 , 0)&quot;&gt;创建子容器&lt;/div&gt;&lt;font color=&quot;#000000&quot;&gt;&lt;div&gt;AbstractDispatcherServletInitializer.java&lt;/div&gt;&lt;div&gt;&lt;span&gt;WebApplicationContext servletAppContext = createServletApplicationContext();&lt;/span&gt;&lt;br&gt;&lt;/div&gt;&lt;/font&gt;" style="rounded=1;whiteSpace=wrap;html=1;fontColor=#FF6666;" parent="1" vertex="1">
          <mxGeometry x="2400" y="390" width="340" height="60" as="geometry" />
        </mxCell>
        <mxCell id="CxRJg8WJ5stTx7T4FeH7-33" value="&lt;div&gt;&lt;font color=&quot;#000000&quot;&gt;创建DispatcherServlet&lt;/font&gt;&lt;/div&gt;&lt;div&gt;&lt;font color=&quot;#000000&quot;&gt;FrameworkServlet dispatcherServlet = createDispatcherServlet(servletAppContext);&lt;/font&gt;&lt;br&gt;&lt;/div&gt;" style="rounded=1;whiteSpace=wrap;html=1;fontColor=#FF6666;" parent="1" vertex="1">
          <mxGeometry x="2400" y="510" width="340" height="60" as="geometry" />
        </mxCell>
        <mxCell id="CxRJg8WJ5stTx7T4FeH7-35" value="&lt;div&gt;&lt;font color=&quot;#000000&quot;&gt;ServletRegistration.Dynamic registration = servletContext.addServlet(servletName, dispatcherServlet);&lt;/font&gt;&lt;br&gt;&lt;/div&gt;" style="rounded=1;whiteSpace=wrap;html=1;fontColor=#FF6666;" parent="1" vertex="1">
          <mxGeometry x="2400" y="610" width="340" height="60" as="geometry" />
        </mxCell>
        <mxCell id="CxRJg8WJ5stTx7T4FeH7-37" value="&lt;div&gt;&lt;div&gt;&lt;font color=&quot;#000000&quot;&gt;设置这个，启动后会立即加载并会调用 DispatcherServlet 父类 HttpServletBean 的 init 方法&lt;/font&gt;&lt;/div&gt;&lt;div&gt;&lt;font color=&quot;#000000&quot;&gt;&lt;span&gt;  &lt;/span&gt;registration.setLoadOnStartup(1);&lt;/font&gt;&lt;/div&gt;&lt;/div&gt;" style="rounded=1;whiteSpace=wrap;html=1;fontColor=#FF6666;" parent="1" vertex="1">
          <mxGeometry x="2400" y="720" width="340" height="60" as="geometry" />
        </mxCell>
        <mxCell id="CxRJg8WJ5stTx7T4FeH7-42" style="edgeStyle=orthogonalEdgeStyle;rounded=0;orthogonalLoop=1;jettySize=auto;html=1;exitX=1;exitY=0.5;exitDx=0;exitDy=0;entryX=0;entryY=0.5;entryDx=0;entryDy=0;fontSize=20;fontColor=#FF6666;" parent="1" source="CxRJg8WJ5stTx7T4FeH7-40" target="CxRJg8WJ5stTx7T4FeH7-41" edge="1">
          <mxGeometry relative="1" as="geometry" />
        </mxCell>
        <mxCell id="CxRJg8WJ5stTx7T4FeH7-40" value="&lt;font color=&quot;#000000&quot;&gt;启动之后就会调用ContextLoaderListener监听器的contextInitialized方法&lt;/font&gt;" style="rounded=1;whiteSpace=wrap;html=1;fontColor=#FF6666;" parent="1" vertex="1">
          <mxGeometry x="3590" y="90" width="340" height="60" as="geometry" />
        </mxCell>
        <mxCell id="CxRJg8WJ5stTx7T4FeH7-44" style="edgeStyle=orthogonalEdgeStyle;rounded=0;orthogonalLoop=1;jettySize=auto;html=1;exitX=1;exitY=0.5;exitDx=0;exitDy=0;entryX=0;entryY=0.5;entryDx=0;entryDy=0;fontSize=20;fontColor=#FF6666;" parent="1" source="CxRJg8WJ5stTx7T4FeH7-41" target="CxRJg8WJ5stTx7T4FeH7-43" edge="1">
          <mxGeometry relative="1" as="geometry" />
        </mxCell>
        <mxCell id="CxRJg8WJ5stTx7T4FeH7-51" style="edgeStyle=orthogonalEdgeStyle;rounded=0;orthogonalLoop=1;jettySize=auto;html=1;exitX=1;exitY=0.5;exitDx=0;exitDy=0;entryX=0;entryY=0.5;entryDx=0;entryDy=0;fontSize=12;fontColor=#000000;" parent="1" source="CxRJg8WJ5stTx7T4FeH7-41" target="CxRJg8WJ5stTx7T4FeH7-50" edge="1">
          <mxGeometry relative="1" as="geometry" />
        </mxCell>
        <mxCell id="Ng5JVmeW-zNZZsK0bWua-3" style="edgeStyle=orthogonalEdgeStyle;rounded=0;orthogonalLoop=1;jettySize=auto;html=1;exitX=1;exitY=0.5;exitDx=0;exitDy=0;entryX=0;entryY=0.5;entryDx=0;entryDy=0;" edge="1" parent="1" source="CxRJg8WJ5stTx7T4FeH7-41" target="Ng5JVmeW-zNZZsK0bWua-1">
          <mxGeometry relative="1" as="geometry" />
        </mxCell>
        <mxCell id="CxRJg8WJ5stTx7T4FeH7-41" value="&lt;font color=&quot;#000000&quot;&gt;initWebApplicationContext(event.getServletContext());&lt;/font&gt;" style="rounded=1;whiteSpace=wrap;html=1;fontColor=#FF6666;" parent="1" vertex="1">
          <mxGeometry x="4070" y="90" width="340" height="60" as="geometry" />
        </mxCell>
        <mxCell id="CxRJg8WJ5stTx7T4FeH7-43" value="&lt;font color=&quot;#000000&quot;&gt;initWebApplicationContext(event.getServletContext());&lt;/font&gt;" style="rounded=1;whiteSpace=wrap;html=1;fontColor=#FF6666;" parent="1" vertex="1">
          <mxGeometry x="4590" width="340" height="60" as="geometry" />
        </mxCell>
        <mxCell id="CxRJg8WJ5stTx7T4FeH7-53" style="edgeStyle=orthogonalEdgeStyle;rounded=0;orthogonalLoop=1;jettySize=auto;html=1;exitX=1;exitY=0.5;exitDx=0;exitDy=0;fontSize=12;fontColor=#000000;" parent="1" source="CxRJg8WJ5stTx7T4FeH7-50" target="CxRJg8WJ5stTx7T4FeH7-52" edge="1">
          <mxGeometry relative="1" as="geometry" />
        </mxCell>
        <mxCell id="Ng5JVmeW-zNZZsK0bWua-2" value="true" style="edgeLabel;html=1;align=center;verticalAlign=middle;resizable=0;points=[];" vertex="1" connectable="0" parent="CxRJg8WJ5stTx7T4FeH7-53">
          <mxGeometry x="-0.1667" y="-4" relative="1" as="geometry">
            <mxPoint as="offset" />
          </mxGeometry>
        </mxCell>
        <mxCell id="CxRJg8WJ5stTx7T4FeH7-50" value="当是以 xml 方式配置的时候，这里就是 null &lt;br&gt;this.context == null" style="rhombus;whiteSpace=wrap;html=1;fontSize=12;fontColor=#000000;" parent="1" vertex="1">
          <mxGeometry x="4590" y="100" width="280" height="110" as="geometry" />
        </mxCell>
        <mxCell id="CxRJg8WJ5stTx7T4FeH7-52" value="&lt;div&gt;&lt;font color=&quot;#000000&quot;&gt;创建一个 WebApplicationContext 并保存到 context 属性&lt;/font&gt;&lt;/div&gt;&lt;div&gt;&lt;font color=&quot;#000000&quot;&gt;&lt;span&gt;    &lt;/span&gt;this.context = createWebApplicationContext(servletContext);&lt;/font&gt;&lt;/div&gt;" style="rounded=1;whiteSpace=wrap;html=1;fontColor=#FF6666;" parent="1" vertex="1">
          <mxGeometry x="4990" y="125" width="340" height="60" as="geometry" />
        </mxCell>
        <mxCell id="Ng5JVmeW-zNZZsK0bWua-4" style="edgeStyle=orthogonalEdgeStyle;rounded=0;orthogonalLoop=1;jettySize=auto;html=1;exitX=0.5;exitY=0;exitDx=0;exitDy=0;entryX=1;entryY=0.5;entryDx=0;entryDy=0;dashed=1;" edge="1" parent="1" source="Ng5JVmeW-zNZZsK0bWua-1" target="CxRJg8WJ5stTx7T4FeH7-27">
          <mxGeometry relative="1" as="geometry">
            <Array as="points">
              <mxPoint x="4750" y="220" />
              <mxPoint x="3300" y="220" />
              <mxPoint x="3300" y="100" />
            </Array>
          </mxGeometry>
        </mxCell>
        <mxCell id="Ng5JVmeW-zNZZsK0bWua-6" style="edgeStyle=orthogonalEdgeStyle;rounded=0;orthogonalLoop=1;jettySize=auto;html=1;exitX=1;exitY=0.5;exitDx=0;exitDy=0;entryX=0;entryY=0.5;entryDx=0;entryDy=0;" edge="1" parent="1" source="Ng5JVmeW-zNZZsK0bWua-1" target="Ng5JVmeW-zNZZsK0bWua-5">
          <mxGeometry relative="1" as="geometry" />
        </mxCell>
        <mxCell id="Ng5JVmeW-zNZZsK0bWua-7" value="true" style="edgeLabel;html=1;align=center;verticalAlign=middle;resizable=0;points=[];" vertex="1" connectable="0" parent="Ng5JVmeW-zNZZsK0bWua-6">
          <mxGeometry x="-0.0732" y="4" relative="1" as="geometry">
            <mxPoint x="1" as="offset" />
          </mxGeometry>
        </mxCell>
        <mxCell id="Ng5JVmeW-zNZZsK0bWua-1" value="通过 spi 机制调用onStartup方法启动时，this.context 是在父容器创建时赋值的&lt;br&gt;this.context instanceof ConfigurableWebApplicationContext" style="rhombus;whiteSpace=wrap;html=1;fontSize=12;fontColor=#000000;" vertex="1" parent="1">
          <mxGeometry x="4590" y="260" width="320" height="100" as="geometry" />
        </mxCell>
        <mxCell id="Ng5JVmeW-zNZZsK0bWua-9" style="edgeStyle=orthogonalEdgeStyle;rounded=0;orthogonalLoop=1;jettySize=auto;html=1;exitX=1;exitY=0.5;exitDx=0;exitDy=0;entryX=0;entryY=0.5;entryDx=0;entryDy=0;" edge="1" parent="1" source="Ng5JVmeW-zNZZsK0bWua-5" target="Ng5JVmeW-zNZZsK0bWua-8">
          <mxGeometry relative="1" as="geometry" />
        </mxCell>
        <mxCell id="Ng5JVmeW-zNZZsK0bWua-14" style="edgeStyle=orthogonalEdgeStyle;rounded=0;orthogonalLoop=1;jettySize=auto;html=1;exitX=1;exitY=0.5;exitDx=0;exitDy=0;entryX=0;entryY=0.5;entryDx=0;entryDy=0;" edge="1" parent="1" source="Ng5JVmeW-zNZZsK0bWua-5" target="Ng5JVmeW-zNZZsK0bWua-10">
          <mxGeometry relative="1" as="geometry" />
        </mxCell>
        <mxCell id="Ng5JVmeW-zNZZsK0bWua-5" value="&lt;font color=&quot;#000000&quot;&gt;执行逻辑&lt;/font&gt;" style="rounded=1;whiteSpace=wrap;html=1;fontColor=#FF6666;" vertex="1" parent="1">
          <mxGeometry x="5000" y="290" width="150" height="40" as="geometry" />
        </mxCell>
        <mxCell id="Ng5JVmeW-zNZZsK0bWua-12" style="edgeStyle=orthogonalEdgeStyle;rounded=0;orthogonalLoop=1;jettySize=auto;html=1;exitX=1;exitY=0.5;exitDx=0;exitDy=0;" edge="1" parent="1" source="Ng5JVmeW-zNZZsK0bWua-8" target="Ng5JVmeW-zNZZsK0bWua-11">
          <mxGeometry relative="1" as="geometry" />
        </mxCell>
        <mxCell id="Ng5JVmeW-zNZZsK0bWua-13" value="true" style="edgeLabel;html=1;align=center;verticalAlign=middle;resizable=0;points=[];" vertex="1" connectable="0" parent="Ng5JVmeW-zNZZsK0bWua-12">
          <mxGeometry x="-0.0108" y="-3" relative="1" as="geometry">
            <mxPoint x="1" as="offset" />
          </mxGeometry>
        </mxCell>
        <mxCell id="Ng5JVmeW-zNZZsK0bWua-8" value="&lt;font color=&quot;#000000&quot;&gt;cwac.getParent() == null&lt;/font&gt;" style="rhombus;whiteSpace=wrap;html=1;fontColor=#FF6666;" vertex="1" parent="1">
          <mxGeometry x="5350" y="180" width="340" height="60" as="geometry" />
        </mxCell>
        <mxCell id="Ng5JVmeW-zNZZsK0bWua-16" style="edgeStyle=orthogonalEdgeStyle;rounded=0;orthogonalLoop=1;jettySize=auto;html=1;exitX=1;exitY=0.5;exitDx=0;exitDy=0;" edge="1" parent="1" source="Ng5JVmeW-zNZZsK0bWua-10" target="Ng5JVmeW-zNZZsK0bWua-15">
          <mxGeometry relative="1" as="geometry" />
        </mxCell>
        <mxCell id="Ng5JVmeW-zNZZsK0bWua-18" style="edgeStyle=orthogonalEdgeStyle;rounded=0;orthogonalLoop=1;jettySize=auto;html=1;exitX=1;exitY=0.5;exitDx=0;exitDy=0;entryX=0;entryY=0.5;entryDx=0;entryDy=0;" edge="1" parent="1" source="Ng5JVmeW-zNZZsK0bWua-10" target="Ng5JVmeW-zNZZsK0bWua-17">
          <mxGeometry relative="1" as="geometry" />
        </mxCell>
        <mxCell id="Ng5JVmeW-zNZZsK0bWua-10" value="&lt;div&gt;&lt;font color=&quot;#000000&quot;&gt;配置和刷新web应用上下文&lt;/font&gt;&lt;/div&gt;&lt;div&gt;&lt;font color=&quot;#000000&quot;&gt;&lt;span&gt;					&lt;/span&gt;configureAndRefreshWebApplicationContext(cwac, servletContext);&lt;/font&gt;&lt;/div&gt;" style="rounded=1;whiteSpace=wrap;html=1;fontColor=#FF6666;" vertex="1" parent="1">
          <mxGeometry x="5350" y="300" width="340" height="60" as="geometry" />
        </mxCell>
        <mxCell id="Ng5JVmeW-zNZZsK0bWua-11" value="&lt;font color=&quot;#000000&quot;&gt;cwac.setParent(parent);&lt;/font&gt;" style="rounded=1;whiteSpace=wrap;html=1;fontColor=#FF6666;" vertex="1" parent="1">
          <mxGeometry x="5800" y="185" width="250" height="50" as="geometry" />
        </mxCell>
        <mxCell id="Ng5JVmeW-zNZZsK0bWua-15" value="&lt;div&gt;&lt;font color=&quot;#000000&quot;&gt;为应用上下文设置 servletContext&lt;/font&gt;&lt;/div&gt;&lt;div&gt;&lt;font color=&quot;#000000&quot;&gt;&lt;span&gt;		&lt;/span&gt;wac.setServletContext(sc);&lt;/font&gt;&lt;/div&gt;" style="rounded=1;whiteSpace=wrap;html=1;fontColor=#FF6666;" vertex="1" parent="1">
          <mxGeometry x="5830" y="300" width="265" height="60" as="geometry" />
        </mxCell>
        <mxCell id="Ng5JVmeW-zNZZsK0bWua-17" value="&lt;div&gt;&lt;font color=&quot;#000000&quot;&gt;Spring 应用上下文的刷新，这里只会加载配置在父容器中的 bean,&lt;/font&gt;&lt;/div&gt;&lt;div&gt;&lt;font color=&quot;#000000&quot;&gt;&lt;span&gt;		&lt;/span&gt;wac.refresh();&lt;/font&gt;&lt;/div&gt;" style="rounded=1;whiteSpace=wrap;html=1;fontColor=#FF6666;" vertex="1" parent="1">
          <mxGeometry x="5830" y="410" width="265" height="60" as="geometry" />
        </mxCell>
        <mxCell id="Ng5JVmeW-zNZZsK0bWua-19" value="&lt;font color=&quot;#000000&quot;&gt;启动之后就会调用ContextLoaderListener监听器的contextInitialized方法&lt;/font&gt;" style="rounded=1;whiteSpace=wrap;html=1;fontColor=#FF6666;" vertex="1" parent="1">
          <mxGeometry x="3590" y="560" width="340" height="60" as="geometry" />
        </mxCell>
      </root>
    </mxGraphModel>
  </diagram>
</mxfile>
